<svg xmlns="http://www.w3.org/2000/svg" viewBox="0 0 43.04 46.91"><defs><style>.cls-1{fill:#164c4f;}</style></defs><g id="Capa_2" data-name="Capa 2"><g id="Capa_1-2" data-name="Capa 1"><g id="_91DtJO.tif" data-name="91DtJO.tif"><path class="cls-1" d="M43,9.86v34A.69.69,0,0,0,43,44a3.27,3.27,0,0,1-3.41,2.94H3.41a3.88,3.88,0,0,1-.9-.1A3.41,3.41,0,0,1,0,43.41c0-6,0-11.93,0-17.9,0-5.07,0-10.15,0-15.22a3.41,3.41,0,0,1,3.46-3.5c1,0,1.92,0,2.87,0h.29a1.94,1.94,0,0,0,0-.22c0-.88,0-1.75,0-2.63A4.09,4.09,0,0,1,9.92.17,14,14,0,0,1,12.59.08a4.06,4.06,0,0,1,3.92,3.67c.09.9,0,1.82,0,2.73v.31h9.92V6.48c0-.77,0-1.55,0-2.33A4.19,4.19,0,0,1,29.12.35,7.56,7.56,0,0,1,33,.16a4,4,0,0,1,3.39,4c0,.78,0,1.56,0,2.34v.3h3.36a3.37,3.37,0,0,1,3.15,2.46C43,9.46,43,9.66,43,9.86ZM3.33,43.57H39.7V16.85H3.33ZM13.24,8.12c0-1.26,0-2.52,0-3.78a.76.76,0,0,0-.77-.85q-.87,0-1.74,0a.75.75,0,0,0-.78.75c0,.1,0,.2,0,.3v7.07a2.44,2.44,0,0,0,0,.27.74.74,0,0,0,.81.77c.52,0,1.05,0,1.58,0s.9-.28.9-.92C13.25,10.53,13.24,9.32,13.24,8.12Zm16.55,0v3.73a.77.77,0,0,0,.83.84H32.2c.63,0,.89-.28.9-.94V4.4c0-.64-.29-.91-.93-.91H30.75c-.68,0-1,.27-1,1Z"/></g></g></g></svg>