<svg xmlns="http://www.w3.org/2000/svg" viewBox="0 0 340.53 199.41"><defs><style>.cls-1{fill:#ff8001;}.cls-2,.cls-3{fill:none;stroke:#ff8001;stroke-linecap:round;}.cls-2{stroke-linejoin:round;stroke-width:5px;}.cls-3{stroke-linejoin:bevel;stroke-width:7px;}.cls-4{fill:#fd8524;}</style></defs><g id="Capa_2" data-name="Capa 2"><g id="Capa_1-2" data-name="Capa 1"><path class="cls-1" d="M308.2,76.31v109.1H14V40H264.21a42.23,42.23,0,0,1,.38-14H12.8A12.81,12.81,0,0,0,0,38.83V186.62a12.81,12.81,0,0,0,12.8,12.79H309.41a12.81,12.81,0,0,0,12.79-12.79V73.12A41.9,41.9,0,0,1,308.2,76.31Z"/><line class="cls-2" x1="33.8" y1="83.24" x2="154.4" y2="83.24"/><line class="cls-3" x1="179.66" y1="155.33" x2="204.6" y2="155.33"/><line class="cls-3" x1="223.18" y1="155.33" x2="248.12" y2="155.33"/><line class="cls-3" x1="266.7" y1="155.33" x2="291.64" y2="155.33"/><g id="EpikCreditos"><path class="cls-1" d="M69.77,125.21a1,1,0,0,1,.6-.11h9c.22,0,.27.06.28.31v2.75c.14.1.2,0,.26,0a10.33,10.33,0,0,1,6.21-3.48,17.11,17.11,0,0,1,8.38.43,12.65,12.65,0,0,1,8.23,7.62,18.94,18.94,0,0,1,1.29,5.6,23.12,23.12,0,0,1,0,4.48,16.29,16.29,0,0,1-3.09,8.38,13.38,13.38,0,0,1-7.06,4.8,17.55,17.55,0,0,1-5.63.7A11.44,11.44,0,0,1,83,155.23a8.42,8.42,0,0,1-3-2.78c-.06-.1-.1-.22-.23-.27s-.1.25-.1.37v14.33c0,.65,0,.62-.62.62H70.17c-.37,0-.39,0-.4-.42V125.21Zm23.9,15.48A9.41,9.41,0,0,0,93,137a5.75,5.75,0,0,0-4.32-3.56,8.81,8.81,0,0,0-3.47,0,5.73,5.73,0,0,0-4.67,4.09,10.9,10.9,0,0,0-.31,4.65,7.58,7.58,0,0,0,.48,1.93,5.45,5.45,0,0,0,3.79,3.46,9,9,0,0,0,3.54.26,5.8,5.8,0,0,0,5.23-4.46A11.46,11.46,0,0,0,93.67,140.69Z"/><path class="cls-1" d="M129.65,135.5a1.12,1.12,0,0,0,.54-.44c2.81-3.07,5.63-6.12,8.42-9.21a1.72,1.72,0,0,1,1.7-.75h11.11a1.4,1.4,0,0,1,.7.07c0,.22-.23.31-.36.43q-4.35,4-8.72,8l-3.79,3.47c-.12.11-.24.23-.35.35a.14.14,0,0,0,0,.19l.39.5,7.94,10q2.9,3.66,5.81,7.31a4.74,4.74,0,0,1,.37.51.1.1,0,0,1-.07.16,1.32,1.32,0,0,1-.28,0c-4.06,0-8.12,0-12.19,0a1,1,0,0,1-.83-.42l-9.66-10.87-.57-.63c-.25.11-.15.3-.15.44V155.1c0,1.15.15,1-1,1h-9a.2.2,0,0,1-.22-.21c0-.19,0-.38,0-.57v-43c0-.85-.06-.78.76-.78h9.19c.14,0,.23.08.23.22s0,.43,0,.64v23.1Z"/><path class="cls-1" d="M44.86,143.27a.47.47,0,0,0,0,.45,6.1,6.1,0,0,0,4.65,4,5.39,5.39,0,0,0,1.2.14,20.24,20.24,0,0,0,2.91-.12,4.11,4.11,0,0,0,2.47-1.16.7.7,0,0,1,.75-.21c2.88.62,5.76,1.21,8.64,1.82.61.14.73,0,.41.76a11.46,11.46,0,0,1-6.2,6.17,17.87,17.87,0,0,1-4.59,1.26,28.82,28.82,0,0,1-4.55.29,17.72,17.72,0,0,1-6.19-1.18,14.55,14.55,0,0,1-9.08-10.34,18.46,18.46,0,0,1-.46-6.79,16.47,16.47,0,0,1,1.7-5.91A14.14,14.14,0,0,1,45,125.32a20.12,20.12,0,0,1,8-.92,17,17,0,0,1,5,1.1,14,14,0,0,1,7.95,7.83,19.82,19.82,0,0,1,1.46,5.77,30.56,30.56,0,0,1,.12,3.7c0,.37-.06.4-.42.42h-.29l-11.9,0-9.41,0Zm-.17-5.51a.67.67,0,0,0,.49.09h2.71l9,0c.62,0,.66-.05.57-.66a5.45,5.45,0,0,0-3-4.24,6.92,6.92,0,0,0-6.31-.09A6.13,6.13,0,0,0,45.05,136,3.46,3.46,0,0,0,44.69,137.76Z"/><path class="cls-1" d="M106.44,140.49V125.88c0-.81-.11-.78.75-.78h9c.46,0,.46,0,.47.49,0,.14,0,.29,0,.43v29.15c0,1.05.12.92-.89.92h-9c-.28,0-.32-.06-.33-.35s0-.38,0-.57Z"/><path class="cls-1" d="M111.51,111.3a5.35,5.35,0,1,1-5.32,5.35A5.28,5.28,0,0,1,111.51,111.3Z"/><path class="cls-1" d="M122.2,170.64c-.14,0-.21.08-.29.16a2.93,2.93,0,0,1-3.83-.23,3.41,3.41,0,0,1-.94-1.81,4.89,4.89,0,0,1,.12-2.4,3.24,3.24,0,0,1,.74-1.28,2.92,2.92,0,0,1,3.83-.37c.09.06.18.15.28.21s.14,0,.15-.07a5.44,5.44,0,0,0,0-.57c0-.66,0-1.33,0-2,0-.24.07-.31.3-.31h1.64a.24.24,0,0,1,.26.27v8.4c0,.14,0,.29,0,.43a.22.22,0,0,1-.23.22h-1.64c-.26,0-.29,0-.33-.35C122.27,170.85,122.31,170.72,122.2,170.64Zm.09-2.95c0-.12,0-.31-.07-.5a1.49,1.49,0,0,0-1.33-1.11,1.46,1.46,0,0,0-1.47.9,2,2,0,0,0,0,1.66,1.45,1.45,0,0,0,2.51.26A1.93,1.93,0,0,0,122.29,167.69Z"/><path class="cls-1" d="M113,169a2,2,0,0,1-.48,1.13,3.67,3.67,0,0,1-5.9-.35,4.14,4.14,0,0,1-.47-2.12,3.73,3.73,0,0,1,.21-1.19,3.18,3.18,0,0,1,2.64-2.21,4.23,4.23,0,0,1,1.77.07,3.23,3.23,0,0,1,2.43,2.92,2,2,0,0,1,0,.43c0,.76,0,.7-.7.7h-3.92c-.18,0-.26.1-.22.27a1.28,1.28,0,0,0,2.07.72c.22-.4.58-.41,1-.4S112.48,168.94,113,169Zm-3.33-1.87h.93c.36,0,.44-.15.28-.48a1.38,1.38,0,0,0-2.23-.23,1.07,1.07,0,0,0-.25.51c0,.1,0,.19.14.19Z"/><path class="cls-1" d="M147.35,171.4a3.47,3.47,0,0,1-3.56-3.35,3.65,3.65,0,0,1,.18-1.47,3.27,3.27,0,0,1,2.15-2.2,4.13,4.13,0,0,1,2.46-.07,3.43,3.43,0,0,1,2.52,3.75A3.47,3.47,0,0,1,147.35,171.4ZM146,167.85a2.37,2.37,0,0,0,.1.67,1.37,1.37,0,0,0,1.24,1,1.4,1.4,0,0,0,1.39-.92,2.17,2.17,0,0,0,0-1.66,1.39,1.39,0,0,0-2.56,0A2.22,2.22,0,0,0,146,167.85Z"/><path class="cls-1" d="M93.79,166.82c-.61,0-1.15,0-1.69,0a.77.77,0,0,1-.82-.4,1.15,1.15,0,0,0-1.7,0,1.64,1.64,0,0,0-.26.42,2.65,2.65,0,0,0,0,1.94,1.15,1.15,0,0,0,1.3.76.93.93,0,0,0,.75-.49.53.53,0,0,1,.58-.29h1.64c.18,0,.23.09.18.28a3.16,3.16,0,0,1-2.89,2.35,4.22,4.22,0,0,1-1.62-.14,3.09,3.09,0,0,1-2-1.85,4.19,4.19,0,0,1,0-3.26,3,3,0,0,1,1.8-1.72,4,4,0,0,1,2.79,0A3,3,0,0,1,93.79,166.82Z"/><path class="cls-1" d="M139.86,169.52a1.55,1.55,0,0,1,0,.64,4.71,4.71,0,0,1,0,1.06,2.65,2.65,0,0,1-1.12.08,3.42,3.42,0,0,1-.71-.07,2,2,0,0,1-1.69-1.84,8,8,0,0,1,0-.85c0-.71,0-1.42,0-2.14,0-.24,0-.29-.28-.31h-.35c-.11,0-.2-.06-.2-.16,0-.5,0-1,0-1.49,0-.11.1-.15.2-.17s.42.07.55-.06.07-.46.08-.69,0-.47,0-.71a.24.24,0,0,1,.27-.25h1.64a.24.24,0,0,1,.26.27c0,.4,0,.8,0,1.21a.2.2,0,0,0,.22.22h.93c.13,0,.24.06.24.2,0,.48,0,.95,0,1.42,0,.15-.11.2-.24.2h-.93a.22.22,0,0,0-.22.23c0,.88,0,1.75,0,2.63,0,.29.16.41.44.48S139.57,169.39,139.86,169.52Z"/><path class="cls-1" d="M100.35,165.2l.44-.4a2.31,2.31,0,0,1,1-.53c.71-.15.66-.09.66.5v1.59c-.17.19-.34.12-.5.14l-.5,0a1.2,1.2,0,0,0-1.16,1.21,5.42,5.42,0,0,0,0,.57c0,.86,0,1.71,0,2.57,0,.39,0,.42-.38.43-.53,0-1,0-1.57,0a.21.21,0,0,1-.23-.22,2.62,2.62,0,0,1,0-.28v-6a2.81,2.81,0,0,1,0-.29.23.23,0,0,1,.26-.26h1c.29,0,.61-.11.84.07S100.19,164.87,100.35,165.2Z"/><path class="cls-1" d="M131.34,167.78v2.92c0,.12,0,.24,0,.35s-.07.24-.21.24h-1.77c-.14,0-.2-.11-.21-.24s0-.29,0-.43v-5.69c0-.14,0-.29,0-.43a.24.24,0,0,1,.27-.25h1.64c.22,0,.28.07.28.32,0,1.07,0,2.13,0,3.2Z"/><path class="cls-1" d="M108.15,163.68a8.81,8.81,0,0,1,0-1.26.26.26,0,0,1,.15-.22l.12-.08,2.51-1.19c.18-.09.28,0,.28.14,0,.41,0,.81,0,1.21a.3.3,0,0,1-.18.29l-.25.11-2.17.91A.7.7,0,0,1,108.15,163.68Z"/><path class="cls-1" d="M130.24,163.56a1.19,1.19,0,0,1-1.3-1.27.17.17,0,0,1,0-.07,1.28,1.28,0,0,1,1.63-1,1.17,1.17,0,0,1,.9,1.45A1.19,1.19,0,0,1,130.24,163.56Z"/></g><path class="cls-1" d="M306.09,76.26A41.75,41.75,0,0,1,272.9,59.87H5.57V93.79H317v-19A41.54,41.54,0,0,1,306.09,76.26Z"/><path class="cls-4" d="M306.63,0a2.71,2.71,0,0,1,2,2.47,2.46,2.46,0,0,1-2.21,2.66c-1.47.17-3,.18-4.42.37a28.09,28.09,0,0,0-14.5,6.38A28.09,28.09,0,0,0,277.83,27c-2.46,10.06-.33,19.1,6.53,26.91a27.73,27.73,0,0,0,17.09,9.37,28.44,28.44,0,0,0,23.81-6.82,27.84,27.84,0,0,0,9.08-14.6,62.67,62.67,0,0,0,1-6.43c.05-.38,0-.76.06-1.14a2.54,2.54,0,0,1,2.75-2.43,2.58,2.58,0,0,1,2.42,2.72,30.71,30.71,0,0,1-1.24,8.95c-3.86,12.68-12.14,21-25,24.28A34.21,34.21,0,0,1,273.8,46.39a33.14,33.14,0,0,1-2-9.29,4.8,4.8,0,0,0-.12-.64v-4c.06-.48.11-1,.17-1.45a34,34,0,0,1,8.65-19.49A33.71,33.71,0,0,1,300.16.54c1.3-.23,2.61-.36,3.91-.54Z"/><path class="cls-4" d="M303.88,40.61a5.27,5.27,0,0,1,.46-.72L334.53,9.77a2.85,2.85,0,0,1,2.68-1,2.57,2.57,0,0,1,1.58,4.08,7.1,7.1,0,0,1-.59.64L305.86,45.69c-1.53,1.53-3,1.51-4.44-.08L288.9,32a2.64,2.64,0,0,1-.14-3.79,2.58,2.58,0,0,1,3.83.15c1.52,1.61,3,3.26,4.51,4.89Z"/></g></g></svg>