<svg xmlns="http://www.w3.org/2000/svg" viewBox="0 0 158.51 80.21"><defs><style>.cls-1{fill:#fff;}</style></defs><g id="Capa_2" data-name="Capa 2"><g id="Capa_1-2" data-name="Capa 1"><path class="cls-1" d="M72.82,17.11a19.78,19.78,0,0,0-12.45,4.44V18.24H46.65V74.71H60.37V56.09a19.72,19.72,0,0,0,12.45,4.44c11.34,0,20.54-9.72,20.54-21.71S84.16,17.11,72.82,17.11ZM69.56,48.49a9.33,9.33,0,0,1-9.08-9.56,9.09,9.09,0,1,1,18.16,0A9.33,9.33,0,0,1,69.56,48.49Z"/><rect class="cls-1" x="95.45" y="18.24" width="13.57" height="41.35"/><path class="cls-1" d="M100.53,14.68A7.44,7.44,0,1,0,95,9.13,7.37,7.37,0,0,0,100.53,14.68Z"/><polygon class="cls-1" points="138.42 35.03 156.75 18.24 138.85 18.24 126.28 32.1 126.28 0.69 112.41 0.69 112.41 59.59 126.28 59.59 126.28 44.18 139.72 59.59 158.51 59.59 138.42 35.03"/><path class="cls-1" d="M22.13,48.39c-7.46-.14-8-5.76-8-5.76H43.91A21.65,21.65,0,0,0,22.13,17.11,21.92,21.92,0,0,0,0,38.82,21.92,21.92,0,0,0,22.13,60.53c8.36,0,18.76-3.64,20.22-11.27L29,46.13S29.59,48.53,22.13,48.39Zm.34-21.17a8.34,8.34,0,0,1,8.34,8.34H14.13A8.33,8.33,0,0,1,22.47,27.22Z"/><path class="cls-1" d="M78.15,77.6a2.41,2.41,0,0,1,0-4.8,2.21,2.21,0,0,1,2,1.46l2.62-1.44a5.43,5.43,0,0,0-4.72-2.62,5,5,0,1,0,0,10,5.43,5.43,0,0,0,4.68-2.56L80.1,76.33A2.19,2.19,0,0,1,78.15,77.6Z"/><path class="cls-1" d="M92.28,70.35a3,3,0,0,0-1.76,1v-1H87.13v9.86h3.39V74.68A2,2,0,0,1,92,73.29h1.52V70.35Z"/><path class="cls-1" d="M107.67,74.32a5.31,5.31,0,0,1,.07.81v-.81Z"/><path class="cls-1" d="M107.67,74.32a5.08,5.08,0,0,0-10,0,5.32,5.32,0,0,0-.06.81,5.07,5.07,0,0,0,5.08,5.08c1.85,0,3.9-.89,4.63-2.51l-3.13-.77a2.21,2.21,0,0,1-1.58.48,2.06,2.06,0,0,1-2-1.32h7.16v-1A5.31,5.31,0,0,0,107.67,74.32Zm-7.19,0a2.23,2.23,0,0,1,4.36,0Z"/><polygon class="cls-1" points="100.97 67.11 100.97 69.11 105.09 67.4 105.09 65.14 100.97 67.11"/><path class="cls-1" d="M119.36,66.52v4.8a4.6,4.6,0,0,0-3.16-1.27,5.09,5.09,0,0,0,0,10.16,4.6,4.6,0,0,0,3.16-1.27v1h3.09V66.52Zm-2.28,11a2.43,2.43,0,1,1,2.28-2.43A2.36,2.36,0,0,1,117.08,77.56Z"/><rect class="cls-1" x="127.75" y="70.35" width="3.39" height="9.86"/><circle class="cls-1" cx="129.44" cy="67.33" r="1.84"/><path class="cls-1" d="M142.17,77.37a1.28,1.28,0,0,1-2-.44V73.25h2.28V70.74h-2.28v-2.5h-3.31v2.5H135.4v2.51h1.48v3.68c0,5,6.18,2.79,6.18,2.79Z"/><path class="cls-1" d="M152.11,70.35c-3.05,0-5.52,2.2-5.52,4.93s2.47,4.93,5.52,4.93,5.52-2.21,5.52-4.93S155.16,70.35,152.11,70.35Zm0,7.21a2.29,2.29,0,1,1,2.13-2.28A2.21,2.21,0,0,1,152.11,77.56Z"/></g></g></svg>