<svg xmlns="http://www.w3.org/2000/svg" viewBox="0 0 56.27 56.27"><defs><style>.cls-1{fill:#ffc500;}.cls-2{fill:#000100;fill-rule:evenodd;}</style></defs><g id="Capa_2" data-name="Capa 2"><g id="Capa_1-2" data-name="Capa 1"><circle class="cls-1" cx="28.14" cy="28.14" r="28.14"/><path class="cls-2" d="M34.59,38.44v4a2.44,2.44,0,0,0,.16.76c.54,1.19,2.42,1.08,3.52.37l-.49-1a1.88,1.88,0,0,1-1.29.28c-.45-.14-.42-.67-.42-1.2V38.41h3L41.56,44A4.18,4.18,0,0,1,41,45.35c-.85,1.18-1.63.68-2.31.53l-.34,1.21a3.11,3.11,0,0,0,3.39-.51,8.62,8.62,0,0,0,1.47-2.89l2.34-6.47H44l-1.65,5c-.17-.19-1.44-3.37-1.67-3.91a1.64,1.64,0,0,0-1.76-1.07H36.08v-2a11.34,11.34,0,0,0-1.49.47v1.5l-1.21,0v1.19ZM31.54,5.77c7.68,0,12.72,6.17,11.27,13.8S33.94,33.38,26.26,33.38,13.53,27.2,15,19.57s8.87-13.8,16.56-13.8ZM35.2,7.56c4.76,1.66,7.52,6.42,6.45,12A16.23,16.23,0,0,1,27.88,32.16c-.51,0-.52-.31-.54-.74,0-.91.06-1.82.08-2.72,0-.13,0-.18-.1-.19a10.42,10.42,0,0,1-2-.42A12.58,12.58,0,0,1,23.22,27c-.33-.16-.28-.91-.28-1.2C23,25.22,23.4,24,24,23.91s1.12.36,1.87.73a5.68,5.68,0,0,0,4.54.35A1.15,1.15,0,0,0,31,23.36c-.53-1.12-3.1-2-4.26-2.6-2.78-1.19-4.34-3.59-3.85-6.46a5.23,5.23,0,0,1,4.42-4v-1A14.7,14.7,0,0,0,21,13.21a13.44,13.44,0,0,0-4.14,9.59c.2,4.89,2.74,7.05,5.4,8.67-4.57-1.76-7.17-6.42-6.13-11.9A16.15,16.15,0,0,1,30.43,7c.27.16.29.18.43.54-.06.84-.11,1.69-.17,2.53a7.69,7.69,0,0,1,3.59,1.51c0,1.94-1.42,2.75-2,2.45a20.31,20.31,0,0,0-2.65-.81,2.74,2.74,0,0,0-1.66.2c-.65.3-1,.76-.65,1.48A3,3,0,0,0,28.54,16l4.19,2.26a6.47,6.47,0,0,1,2.62,2.62,5.6,5.6,0,0,1,.26,3.21,5.18,5.18,0,0,1-2.52,3.27,7.06,7.06,0,0,1-2.16.82c0,.46,0,.9-.06,1.35a.23.23,0,0,0,.18,0,15.61,15.61,0,0,0,4.32-2.38,14.8,14.8,0,0,0,4.25-5.27,12.74,12.74,0,0,0,1.26-4c.47-4.27-1.08-8.28-5.68-10.38ZM17.54,37.22V35.74a2.06,2.06,0,0,1,1.12-1.65,2.86,2.86,0,0,1,2.31.08l-.28,1.17C19,35,19,35.29,19,37.22h1.84l-.47,1.18H19V44a7.28,7.28,0,0,1-1.48,0V38.42l-.75,0-.46-1.17Zm10,3.56c.09,4,4.4,3.75,5.56,2.7a5,5,0,0,0-.43-1,2.79,2.79,0,0,1-2.54.22c-1.49-.73-1.38-3.52.13-4.21a2.64,2.64,0,0,1,2,0c.21.1.37.21.55.28V37.48a3.92,3.92,0,0,0-2.65-.33,3.5,3.5,0,0,0-2.63,3.63Zm-15.73-.89c.11-.9.45-1.65,1.41-1.66s1.37.75,1.41,1.68Zm4.14,3.59-.42-1a8.35,8.35,0,0,1-1.14.39A2,2,0,0,1,11.81,41h4.32c0-1.52-.26-3.25-1.95-3.78a3.1,3.1,0,0,0-2.38.22c-2.34,1.41-2.22,6.75,1.88,6.7a3.91,3.91,0,0,0,2.25-.64Zm6.47-3.57c.08-.91.49-1.67,1.43-1.68s1.36.78,1.37,1.68Zm-1.5,1c.16,2.5,2.09,3.67,4.48,3.11a8.41,8.41,0,0,0,1.17-.46l-.42-1.05a3.46,3.46,0,0,1-2.47.33A1.87,1.87,0,0,1,22.42,41h4.33c0-2-.6-3.91-2.87-3.92s-3.1,1.84-3,3.82Z"/></g></g></svg>