<svg xmlns="http://www.w3.org/2000/svg" viewBox="0 0 164.67 33.25"><defs><style>.cls-1{fill:#fff;}</style></defs><g id="Capa_2" data-name="Capa 2"><g id="Capa_1-2" data-name="Capa 1"><path class="cls-1" d="M98,18.49v7.37H93v-.55c0-3.72,0-7.43,0-11.15a6,6,0,0,0-.16-1.4,2.49,2.49,0,0,0-2.31-2.06,3.83,3.83,0,0,0-4.65,3.84c0,.68,0,1.37,0,2.05q0,4.36,0,8.73v.53h-5V18.11a12.28,12.28,0,0,1-1,3.35,8.32,8.32,0,0,1-4.91,4.32,11,11,0,0,1-7.6-.08,8.4,8.4,0,0,1-5.19-5.41c-.05-.13-.09-.26-.13-.39l0-.09a2.63,2.63,0,0,0-.18.3,10,10,0,0,1-8.45,6.23,12,12,0,0,1-7.53-1.22,10.8,10.8,0,0,1-5.15-7.06c-.12-.44-.21-.89-.3-1.28-.13.88-.22,1.82-.44,2.73a8.77,8.77,0,0,1-8.11,6.82,10.88,10.88,0,0,1-5.24-.68A8.62,8.62,0,0,1,21.17,19s0-.09-.06-.23a3.11,3.11,0,0,0-.1.33,7.33,7.33,0,0,1-6.64,6.59,35.86,35.86,0,0,1-3.6.2c-3.45,0-6.91,0-10.37,0H0V.36a1.75,1.75,0,0,1,.24,0c4.37,0,8.75,0,13.12,0A7.23,7.23,0,0,1,17.94,2,6.2,6.2,0,0,1,20.22,7.5,5,5,0,0,1,17.31,12a1,1,0,0,0-.14.12,5.65,5.65,0,0,1,3.69,4.22c.11-.9.17-1.68.31-2.45A8.77,8.77,0,0,1,29,6.57,11.37,11.37,0,0,1,34.15,7a8.48,8.48,0,0,1,5.67,6,2.15,2.15,0,0,1,.13.63c.17-1.42.24-2.87.52-4.27a11.06,11.06,0,0,1,5.26-7.81A11.83,11.83,0,0,1,52.67,0a11.25,11.25,0,0,1,5.41,1.6,9.68,9.68,0,0,1,4.59,7.3H57.28c-.08-.24-.16-.5-.25-.76a4.84,4.84,0,0,0-4.75-3.51,5.7,5.7,0,0,0-6,4,13.43,13.43,0,0,0,.14,9.43,5.21,5.21,0,0,0,4.11,3.57c2.1.32,4.11,0,5.51-1.82a8.5,8.5,0,0,0,.9-1.78.46.46,0,0,1,.52-.36h4.09V16.62a11.78,11.78,0,0,1,.59-4.13A8.42,8.42,0,0,1,67.86,7a10.9,10.9,0,0,1,7,.09,8.57,8.57,0,0,1,5.82,7,4.32,4.32,0,0,0,.17.71V7h4.76V9.63l.09,0,.23-.3a6,6,0,0,1,5.13-2.9,7.1,7.1,0,0,1,4.66,1.31,5.65,5.65,0,0,1,2.22,4.46c.06,1,0,1.95,0,2.76.25-1,.45-2.1.83-3.17A7.75,7.75,0,0,1,106,6.48a10.91,10.91,0,0,1,4.93.73,7,7,0,0,1,4.32,5.43c0,.2.07.39.12.64.18-.54.32-1,.5-1.5a7.83,7.83,0,0,1,7.21-5.28,10.35,10.35,0,0,1,4.42.48,7.86,7.86,0,0,1,5.1,5.92c.2.8.3,1.61.45,2.43V7h4.76V9.74c.35-.47.61-.85.89-1.19a5.6,5.6,0,0,1,4.17-2.07,7.63,7.63,0,0,1,6.75,2.91.55.55,0,0,1,.06.18l.13-.08V7h3.15V1.85h5V6.94H161V10.6h-3.05c0,.2,0,.36,0,.52,0,3.25,0,6.49,0,9.74,0,1.12.26,1.4,1.38,1.45.55,0,1.1,0,1.68,0v3.78c-.46,0-.94,0-1.42,0a30.89,30.89,0,0,1-3.86-.24A3,3,0,0,1,153,22.57c0-3.76,0-7.52,0-11.29v-.62h-2.46a1.62,1.62,0,0,0,.08.27,12.67,12.67,0,0,1,1,7.05,11.47,11.47,0,0,1-1.6,4.81,7.62,7.62,0,0,1-8.65,3.33,5,5,0,0,1-2.87-2.06l-.33-.49-.12-.06v9.74h-4.95V17.81H120.11a4.09,4.09,0,0,0,4,4.59,3.8,3.8,0,0,0,2-.37,2.75,2.75,0,0,0,1.2-1.38.46.46,0,0,1,.33-.28c1.58,0,3.17,0,4.75,0,0,0,.05,0,.11.06-.93,2.68-2.52,4.76-5.36,5.58a10.57,10.57,0,0,1-7.4-.56,7.64,7.64,0,0,1-4.24-5.52c0-.16-.07-.32-.11-.49,0,0,0,0,0-.09a3.25,3.25,0,0,0-.11.35,7.94,7.94,0,0,1-7.49,6.65,11.3,11.3,0,0,1-4.59-.52,7.56,7.56,0,0,1-4.83-5.7c-.14-.54-.22-1.1-.33-1.64Zm17.23-4.78h-4.8c-.17-.48-.29-.92-.48-1.33a2.75,2.75,0,0,0-2.16-1.7,3.62,3.62,0,0,0-4.2,2.56,10.83,10.83,0,0,0-.31,5.33,7.15,7.15,0,0,0,.58,1.91,3.41,3.41,0,0,0,6,.07,14.29,14.29,0,0,0,.6-1.57h4.77ZM35.26,16.37a23,23,0,0,0-.55-2.82,3.94,3.94,0,0,0-4.1-2.91,4,4,0,0,0-4.14,2.94,9.19,9.19,0,0,0,0,5.61,3.9,3.9,0,0,0,3.58,3c2.25.21,4.08-.68,4.75-3.05A24.92,24.92,0,0,0,35.26,16.37Zm40.59.22c-.11-.89-.16-1.62-.31-2.34a4.39,4.39,0,0,0-8.6-.16A9.46,9.46,0,0,0,67,19a4,4,0,0,0,3.64,3.2c2.23.22,4.07-.66,4.74-3A23.89,23.89,0,0,0,75.85,16.59Zm62,.08a7.19,7.19,0,0,0,.65,3.37,4,4,0,0,0,6.86.62,7.76,7.76,0,0,0,.1-8.28,4,4,0,0,0-3.83-1.73,3.63,3.63,0,0,0-3.23,2.57A9.86,9.86,0,0,0,137.8,16.67ZM5.1,21.45c2.47,0,4.91.09,7.33,0a3.07,3.07,0,0,0,3.21-2.69A3.06,3.06,0,0,0,14,15a5.89,5.89,0,0,0-2.11-.47c-2.14-.06-4.29,0-6.44,0l-.39,0Zm0-10.86c2.36,0,4.66,0,7,0a3.24,3.24,0,0,0,2.38-1.12A2.71,2.71,0,0,0,13,4.92a5.52,5.52,0,0,0-1.27-.16c-2.11,0-4.23,0-6.35,0-.1,0-.2,0-.32,0v5.81Zm122.81,3.92a3.78,3.78,0,0,0-4.06-3.9,3.69,3.69,0,0,0-3.58,3.9Z"/><path class="cls-1" d="M162.47,4.67a2.19,2.19,0,1,1,2.2-2.15A2.19,2.19,0,0,1,162.47,4.67Zm0-.29a1.9,1.9,0,0,0,1.93-1.86,1.91,1.91,0,1,0-3.81,0A1.91,1.91,0,0,0,162.45,4.38Z"/><path class="cls-1" d="M162.43,2.78h-.36V3.6h-.46V1.37h.83a1,1,0,0,1,.61.17.63.63,0,0,1,.21.5.65.65,0,0,1-.1.38.76.76,0,0,1-.3.25l.48.91v0h-.49Zm-.36-.37h.37a.36.36,0,0,0,.26-.09.3.3,0,0,0,.1-.24.33.33,0,0,0-.09-.25.37.37,0,0,0-.27-.09h-.37Z"/></g></g></svg>