<svg xmlns="http://www.w3.org/2000/svg" viewBox="0 0 158.51 74.71"><defs><style>.cls-1{fill:#fff;}</style></defs><g id="Capa_2" data-name="Capa 2"><g id="Capa_1-2" data-name="Capa 1"><path class="cls-1" d="M72.82,17.11a19.78,19.78,0,0,0-12.45,4.44V18.24H46.65V74.71H60.37V56.09a19.72,19.72,0,0,0,12.45,4.44c11.34,0,20.54-9.72,20.54-21.71S84.16,17.11,72.82,17.11ZM69.56,48.49a9.33,9.33,0,0,1-9.08-9.56,9.09,9.09,0,1,1,18.16,0A9.33,9.33,0,0,1,69.56,48.49Z"/><rect class="cls-1" x="95.45" y="18.24" width="13.57" height="41.35"/><path class="cls-1" d="M100.53,14.68A7.44,7.44,0,1,0,95,9.13,7.37,7.37,0,0,0,100.53,14.68Z"/><polygon class="cls-1" points="138.42 35.03 156.75 18.24 138.85 18.24 126.28 32.1 126.28 0.69 112.41 0.69 112.41 59.59 126.28 59.59 126.28 44.18 139.72 59.59 158.51 59.59 138.42 35.03"/><path class="cls-1" d="M22.13,48.39c-7.46-.14-8-5.76-8-5.76H43.91A21.65,21.65,0,0,0,22.13,17.11,21.92,21.92,0,0,0,0,38.82,21.92,21.92,0,0,0,22.13,60.53c8.36,0,18.76-3.64,20.22-11.27L29,46.13S29.59,48.53,22.13,48.39Zm.34-21.17a8.34,8.34,0,0,1,8.34,8.34H14.13A8.33,8.33,0,0,1,22.47,27.22Z"/></g></g></svg>