<svg xmlns="http://www.w3.org/2000/svg" viewBox="0 0 110.14 19.88"><defs><style>.cls-1{fill:#424242;}</style></defs><g id="Capa_2" data-name="Capa 2"><g id="Capa_1-2" data-name="Capa 1"><polygon class="cls-1" points="24.1 0 15.88 0 8.4 7.31 6.1 7.31 6.1 0 0 0 0 19.88 6.1 19.88 6.1 12.3 8.15 12.3 15.25 19.88 23.46 19.88 13.58 9.74 24.1 0"/><polygon class="cls-1" points="110.14 4.75 110.14 0 94.99 0 90.26 0 88.91 0 88.91 19.88 90.26 19.88 94.99 19.88 110.14 19.88 110.14 15.12 94.99 15.12 94.99 11.83 108.97 11.83 108.97 8.05 94.99 8.05 94.99 4.75 110.14 4.75"/><path class="cls-1" d="M82.59,8.47V4.61A4.61,4.61,0,0,0,78,0H59.2V19.88h6.14V14.59h9.08a2.28,2.28,0,0,1,2.28,2.28v3h5.89V15.51a3.44,3.44,0,0,0-3.44-3.44H79A3.6,3.6,0,0,0,82.59,8.47ZM65.34,5H75a2,2,0,0,1,2,2V8a2,2,0,0,1-2,1.95H65.34Z"/><path class="cls-1" d="M44.46,0H36.59L25.92,19.88H32.6l1.84-3.42,12.21-.12,1.84,3.54h6.75Zm-4,12H36.2L38.36,8.3l2.15-3.73L42.67,8.3,44.82,12Z"/></g></g></svg>