<svg xmlns="http://www.w3.org/2000/svg" viewBox="0 0 340.37 200.25"><defs><style>.cls-1{fill:#ff8001;}.cls-2,.cls-3,.cls-4,.cls-5{fill:none;}.cls-2,.cls-5{stroke:#ff8001;}.cls-2,.cls-4,.cls-5{stroke-linecap:round;}.cls-2{stroke-linejoin:round;}.cls-2,.cls-3,.cls-4{stroke-width:5px;}.cls-3,.cls-4{stroke:#164c4f;stroke-miterlimit:10;}.cls-5{stroke-linejoin:bevel;stroke-width:7px;}</style></defs><g id="Capa_2" data-name="Capa 2"><g id="Capa_1-2" data-name="Capa 1"><path class="cls-1" d="M308.2,77.14V186.25H14V40.87H264.21a42.23,42.23,0,0,1,.38-14H12.8A12.81,12.81,0,0,0,0,39.66V187.45a12.81,12.81,0,0,0,12.8,12.8H309.41a12.81,12.81,0,0,0,12.79-12.8V74A42.14,42.14,0,0,1,308.2,77.14Z"/><line class="cls-2" x1="33.8" y1="84.08" x2="154.4" y2="84.08"/><circle class="cls-3" cx="306.09" cy="34.28" r="31.78"/><line class="cls-4" x1="291.13" y1="19.32" x2="321.05" y2="49.24"/><line class="cls-4" x1="321.05" y1="19.32" x2="291.13" y2="49.24"/><line class="cls-5" x1="179.66" y1="156.17" x2="204.6" y2="156.17"/><line class="cls-5" x1="223.18" y1="156.17" x2="248.12" y2="156.17"/><line class="cls-5" x1="266.7" y1="156.17" x2="291.64" y2="156.17"/><g id="EpikCreditos"><path class="cls-1" d="M69.77,126.05a.9.9,0,0,1,.6-.11h9c.22,0,.27.07.28.32V129c.14.09.2,0,.26-.06a10.37,10.37,0,0,1,6.21-3.47,16.88,16.88,0,0,1,8.38.43,12.65,12.65,0,0,1,8.23,7.62,18.87,18.87,0,0,1,1.29,5.6,23.13,23.13,0,0,1,0,4.48,16.29,16.29,0,0,1-3.09,8.37,13.38,13.38,0,0,1-7.06,4.8,17,17,0,0,1-5.63.7A11.2,11.2,0,0,1,83,156.06a8.42,8.42,0,0,1-3-2.78c-.06-.1-.1-.21-.23-.26s-.1.24-.1.36v14.33c0,.66,0,.62-.62.62H70.17c-.37,0-.39,0-.4-.41V126.05Zm23.9,15.47a9.36,9.36,0,0,0-.65-3.7,5.75,5.75,0,0,0-4.32-3.56,8.81,8.81,0,0,0-3.47,0,5.73,5.73,0,0,0-4.67,4.09,11,11,0,0,0-.31,4.66,7.69,7.69,0,0,0,.48,1.93,5.43,5.43,0,0,0,3.79,3.45,9,9,0,0,0,3.54.26,5.8,5.8,0,0,0,5.23-4.46A11.46,11.46,0,0,0,93.67,141.52Z"/><path class="cls-1" d="M129.65,136.34a1.19,1.19,0,0,0,.54-.45c2.81-3.06,5.63-6.12,8.42-9.21a1.71,1.71,0,0,1,1.7-.74h11.11a1.4,1.4,0,0,1,.7.06c0,.22-.23.31-.36.44l-8.72,8-3.79,3.46c-.12.11-.24.23-.35.35a.14.14,0,0,0,0,.19l.39.51q4,5,7.94,10,2.9,3.66,5.81,7.31a6.15,6.15,0,0,1,.37.52c0,.06,0,.14-.07.16a1.31,1.31,0,0,1-.28,0H140.86a1,1,0,0,1-.83-.42l-9.66-10.86q-.28-.33-.57-.63c-.25.1-.15.29-.15.43v10.48c0,1.15.15,1-1,1-2.8,0-5.6,0-8.41,0h-.57c-.14,0-.22-.08-.22-.22s0-.38,0-.57v-43c0-.84-.06-.77.76-.77q4.35,0,8.69,0h.5a.21.21,0,0,1,.23.21c0,.22,0,.43,0,.65v23.1Z"/><path class="cls-1" d="M44.86,144.1a.49.49,0,0,0,0,.46,6.41,6.41,0,0,0,5.85,4.13,21.79,21.79,0,0,0,2.91-.12,4.18,4.18,0,0,0,2.47-1.17.7.7,0,0,1,.75-.2c2.88.61,5.76,1.2,8.64,1.82.61.13.73,0,.41.75A11.48,11.48,0,0,1,59.7,156a17.46,17.46,0,0,1-4.59,1.25,26.62,26.62,0,0,1-4.55.29,17.49,17.49,0,0,1-6.19-1.18A14.55,14.55,0,0,1,35.29,146a18.49,18.49,0,0,1-.46-6.79,16.53,16.53,0,0,1,1.7-5.92A14.14,14.14,0,0,1,45,126.15a19.94,19.94,0,0,1,8-.91,17,17,0,0,1,5,1.09,14.07,14.07,0,0,1,7.95,7.83,19.89,19.89,0,0,1,1.46,5.78,30.43,30.43,0,0,1,.12,3.7c0,.36-.06.4-.42.41h-.29l-11.9,0h-10Zm-.17-5.5c.16.13.33.08.49.08h2.71l9,0c.62,0,.66,0,.57-.65a5.48,5.48,0,0,0-3-4.25,7,7,0,0,0-6.31-.09,6.11,6.11,0,0,0-3.13,3.18A3.44,3.44,0,0,0,44.69,138.6Z"/><path class="cls-1" d="M106.44,141.32V126.71c0-.8-.11-.77.75-.77h9c.46,0,.46,0,.47.49,0,.14,0,.28,0,.42V156c0,1.05.12.92-.89.92-2.81,0-5.61,0-8.41,0-.19,0-.38,0-.57,0s-.32,0-.33-.35,0-.38,0-.57Z"/><path class="cls-1" d="M111.51,112.13a5.35,5.35,0,1,1-5.32,5.35A5.29,5.29,0,0,1,111.51,112.13Z"/><path class="cls-1" d="M122.2,171.48c-.14,0-.21.08-.29.16a2.93,2.93,0,0,1-3.83-.24,3.38,3.38,0,0,1-.94-1.81,4.84,4.84,0,0,1,.12-2.39,3.17,3.17,0,0,1,.74-1.28,2.92,2.92,0,0,1,3.83-.38,3,3,0,0,0,.28.22.1.1,0,0,0,.15-.08,5.4,5.4,0,0,0,0-.56c0-.67,0-1.33,0-2,0-.24.07-.3.3-.3h1.64a.23.23,0,0,1,.26.26v8.41c0,.14,0,.28,0,.42a.22.22,0,0,1-.23.22c-.55,0-1.09,0-1.64,0-.26,0-.29,0-.33-.34C122.27,171.68,122.31,171.56,122.2,171.48Zm.09-3c0-.12,0-.31-.07-.49a1.48,1.48,0,0,0-1.33-1.11,1.44,1.44,0,0,0-1.47.9,2,2,0,0,0,0,1.66,1.45,1.45,0,0,0,2.51.25A1.93,1.93,0,0,0,122.29,168.52Z"/><path class="cls-1" d="M113,169.79a2.07,2.07,0,0,1-.48,1.14,3.67,3.67,0,0,1-5.9-.35,4.16,4.16,0,0,1-.47-2.13,3.78,3.78,0,0,1,.21-1.19,3.16,3.16,0,0,1,2.64-2.2,4.23,4.23,0,0,1,1.77.07,3.21,3.21,0,0,1,2.43,2.91,2.1,2.1,0,0,1,0,.43c0,.76,0,.71-.7.71h-3.92c-.18,0-.26.1-.22.27a1.29,1.29,0,0,0,2.07.73c.22-.41.58-.42,1-.4S112.48,169.77,113,169.79Zm-3.33-1.87h.93c.36,0,.44-.16.28-.49a1.38,1.38,0,0,0-2.23-.22,1.08,1.08,0,0,0-.25.5c0,.11,0,.2.14.2C108.93,167.93,109.31,167.92,109.69,167.92Z"/><path class="cls-1" d="M147.35,172.23a3.47,3.47,0,0,1-3.56-3.34,3.72,3.72,0,0,1,.18-1.48,3.27,3.27,0,0,1,2.15-2.2,4.13,4.13,0,0,1,2.46-.06,3.41,3.41,0,0,1,2.52,3.74A3.46,3.46,0,0,1,147.35,172.23ZM146,168.68a2.32,2.32,0,0,0,.1.67,1.38,1.38,0,0,0,1.24,1,1.42,1.42,0,0,0,1.39-.92,2.19,2.19,0,0,0,0-1.67,1.39,1.39,0,0,0-2.56,0A2.17,2.17,0,0,0,146,168.68Z"/><path class="cls-1" d="M93.79,167.66c-.61,0-1.15,0-1.69,0a.8.8,0,0,1-.82-.4,1.15,1.15,0,0,0-1.7,0,1.83,1.83,0,0,0-.26.42,2.68,2.68,0,0,0,0,1.95,1.15,1.15,0,0,0,1.3.76,1,1,0,0,0,.75-.49.54.54,0,0,1,.58-.3h1.64c.18,0,.23.09.18.28a3.18,3.18,0,0,1-2.89,2.36,4.22,4.22,0,0,1-1.62-.15,3,3,0,0,1-2-1.85,4.19,4.19,0,0,1,0-3.26,3,3,0,0,1,1.8-1.72,4.06,4.06,0,0,1,2.79,0A3,3,0,0,1,93.79,167.66Z"/><path class="cls-1" d="M139.86,170.35a1.56,1.56,0,0,1,0,.64,4.68,4.68,0,0,1,0,1.06,2.5,2.5,0,0,1-1.12.09,2.87,2.87,0,0,1-.71-.08,1.94,1.94,0,0,1-1.69-1.83,8.17,8.17,0,0,1,0-.86c0-.71,0-1.42,0-2.13,0-.25,0-.29-.28-.31l-.35,0c-.11,0-.2,0-.2-.16,0-.49,0-1,0-1.49,0-.1.1-.15.2-.16s.42.07.55-.07.07-.45.08-.68,0-.48,0-.72a.24.24,0,0,1,.27-.25h1.64a.23.23,0,0,1,.26.26c0,.41,0,.81,0,1.21a.21.21,0,0,0,.22.23h.93c.13,0,.24.05.24.2,0,.47,0,.95,0,1.42,0,.15-.11.2-.24.2h-.93a.2.2,0,0,0-.22.22c0,.88,0,1.76,0,2.64,0,.28.16.41.44.47S139.57,170.22,139.86,170.35Z"/><path class="cls-1" d="M100.35,166l.44-.4a2.12,2.12,0,0,1,1-.53c.71-.15.66-.09.66.49v1.59c-.17.2-.34.13-.5.14l-.5,0a1.21,1.21,0,0,0-1.16,1.22,5.42,5.42,0,0,0,0,.57c0,.85,0,1.71,0,2.56,0,.4,0,.43-.38.43-.53,0-1,0-1.57,0a.22.22,0,0,1-.23-.22,2.81,2.81,0,0,1,0-.29v-6a2.62,2.62,0,0,1,0-.28.23.23,0,0,1,.26-.26c.33,0,.66,0,1,0s.61-.11.84.06S100.19,165.71,100.35,166Z"/><path class="cls-1" d="M131.34,168.62v2.91c0,.12,0,.24,0,.36a.21.21,0,0,1-.21.24h-1.77c-.14,0-.2-.11-.21-.24s0-.28,0-.42v-5.7c0-.14,0-.28,0-.42a.24.24,0,0,1,.27-.25h1.64c.22,0,.28.07.28.31,0,1.07,0,2.14,0,3.21Z"/><path class="cls-1" d="M108.15,164.52a9,9,0,0,1,0-1.27.27.27,0,0,1,.15-.22l.12-.07,2.51-1.2c.18-.08.28,0,.28.15,0,.4,0,.81,0,1.21a.29.29,0,0,1-.18.28l-.25.12-2.17.91A.87.87,0,0,1,108.15,164.52Z"/><path class="cls-1" d="M130.24,164.39a1.18,1.18,0,0,1-1.3-1.26.15.15,0,0,1,0-.07,1.27,1.27,0,0,1,1.63-1,1.16,1.16,0,0,1,.9,1.45A1.19,1.19,0,0,1,130.24,164.39Z"/></g><path class="cls-1" d="M306.09,77.09A41.75,41.75,0,0,1,272.9,60.7H5.57V94.62H317v-19A42,42,0,0,1,306.09,77.09Z"/></g></g></svg>