<svg xmlns="http://www.w3.org/2000/svg" viewBox="0 0 340.37 199.25"><defs><style>.cls-1{fill:#ff8001;}.cls-2,.cls-4,.cls-5{fill:none;stroke-width:5px;}.cls-2,.cls-3{stroke:#ff8001;stroke-linejoin:round;}.cls-2,.cls-3,.cls-5{stroke-linecap:round;}.cls-3{fill:#f5852a;}.cls-4,.cls-5{stroke:#164c4f;stroke-miterlimit:10;}</style></defs><g id="Capa_2" data-name="Capa 2"><g id="Capa_1-2" data-name="Capa 1"><path class="cls-1" d="M308.2,76.14V185.25H14V39.87H264.21a42.23,42.23,0,0,1,.38-14H12.8A12.81,12.81,0,0,0,0,38.66V186.45a12.81,12.81,0,0,0,12.8,12.8H309.41a12.81,12.81,0,0,0,12.79-12.8V73A42.14,42.14,0,0,1,308.2,76.14Z"/><line class="cls-2" x1="33.8" y1="83.08" x2="154.4" y2="83.08"/><line class="cls-2" x1="33.8" y1="128.64" x2="154.4" y2="128.64"/><line class="cls-2" x1="33.8" y1="150.08" x2="154.4" y2="150.08"/><path class="cls-3" d="M248.38,119.11a15.59,15.59,0,0,1-11.33-5.22c-3.09-3.48-4.86-9.17-4.86-15.58,0-4.06.33-9.22,2.85-13.08a15.89,15.89,0,0,1,13.34-6.74,15.44,15.44,0,0,1,12.88,6.71c2.2,3.28,3.31,7.69,3.31,13.11,0,6.34-1.72,12-4.73,15.44A15.65,15.65,0,0,1,248.38,119.11Zm0-36.73c-3.3,0-7.68,1.31-10.08,5-2,3-2.21,7.44-2.21,11,0,5.48,1.41,10.22,3.88,13a11,11,0,0,0,16.93-.11c2.4-2.77,3.78-7.47,3.78-12.89,0-4.63-.89-8.31-2.66-10.93A11.52,11.52,0,0,0,248.38,82.38Z"/><path class="cls-3" d="M245.16,153.79c-1.54-.15-3.08-.28-4.61-.45a60.36,60.36,0,0,1-21.35-6.25,4.31,4.31,0,0,1-2.57-3.54,28.44,28.44,0,0,1,.6-11.9,9.23,9.23,0,0,1,6.56-6.58,47,47,0,0,0,12.6-5.77,2.12,2.12,0,1,1,2.31,3.53,45.37,45.37,0,0,1-13,6c-2.91.77-4.32,2.71-4.81,5.5a29.66,29.66,0,0,0-.16,7.93,1.42,1.42,0,0,0,.88,1.28,55.76,55.76,0,0,0,15.92,5.09,65.08,65.08,0,0,0,25.67-.76,49.29,49.29,0,0,0,12.27-4.46,1.17,1.17,0,0,0,.58-.73,24.34,24.34,0,0,0-.34-9.43,5.65,5.65,0,0,0-4.21-4.29,46.76,46.76,0,0,1-13.31-6.12,2.19,2.19,0,0,1-1.15-2.35,2.11,2.11,0,0,1,3.24-1.31c1.34.78,2.64,1.62,4,2.35a37.17,37.17,0,0,0,8.09,3.3c4.46,1.16,6.87,4.15,7.71,8.53A31.35,31.35,0,0,1,280.1,144a3.63,3.63,0,0,1-2,2.84,57.37,57.37,0,0,1-18.45,6c-2.45.38-4.93.53-7.39.79l-.72.12Z"/><circle class="cls-4" cx="306.09" cy="34.28" r="31.78"/><line class="cls-5" x1="291.13" y1="19.32" x2="321.05" y2="49.24"/><line class="cls-5" x1="321.05" y1="19.32" x2="291.13" y2="49.24"/></g></g></svg>