<svg xmlns="http://www.w3.org/2000/svg" viewBox="0 0 229.4 362.09"><defs><style>.cls-1{fill:#fff;}.cls-2{fill:#fd8524;}.cls-3{fill:#164c4f;}</style></defs><g id="Capa_2" data-name="Capa 2"><g id="Capa_1-2" data-name="Capa 1"><rect class="cls-1" x="9.7" y="45.7" width="178.05" height="297.27"/><path class="cls-2" d="M198.24,179.92V104.69c-2,.57-4,1.15-6,1.86-3.76,1.35-6.55,2.53-10.34,2.78V319.38H16.29V57.91H121.05a59.84,59.84,0,0,1,0-14.65c-7.43,0-14.87,0-22.3,0s-15.06,0-22.59,0c-2,0-4.06-.18-4-2.75s2-2.77,4-2.77q22.89,0,45.78,0a84.85,84.85,0,0,1,4.28-14.09c.34-.85.7-1.7,1.09-2.52H25c-15.11,0-25,9.62-25,24.62Q0,191.57.12,337.39a31.45,31.45,0,0,0,2.74,12.15c3.17,7.23,9.62,10.68,17,12.55H178.38a53.25,53.25,0,0,0,6.54-2.3c9.46-4.74,13.33-12.77,13.33-23.06Q198.22,258.32,198.24,179.92ZM99.12,350.58a11.52,11.52,0,1,1,11.42-11.44A11.48,11.48,0,0,1,99.12,350.58Z" transform="translate(0 0)"/><path class="cls-3" d="M229.4,53.54c-.62,1.71-1.62,3-3.56,3.29a4.1,4.1,0,0,1-4.7-3.73c-.07-1.11-.08-2.22,0-3.33a4.09,4.09,0,0,1,3.64-4,4.17,4.17,0,0,1,4.43,2.91c.07.22.15.44.23.66Z" transform="translate(0 0)"/><path class="cls-3" d="M206.56,8.69c.79-1.13,1.59-2.29,2.39-3.45a3.92,3.92,0,0,1,.65-.89c.48-.41,1.05-1,1.56-1s.86.83,1,1.38c.48,1.36.81,2.77,1.2,4.16q1.2,4.32,2.39,8.64c.65,2.33-.22,3.5-2.64,3.7-4.22.35-8.44.75-12.66,1.12-.78.07-1.71.37-2.22-.47s.23-1.51.66-2.16c.89-1.34,1.83-2.66,2.83-4.11-1-.62-2-1.26-3-1.81a43.37,43.37,0,0,0-55,11,40.85,40.85,0,0,0-9.35,25.77c-.11,15.4,6.07,27.8,18.7,36.8a41.94,41.94,0,0,0,16.7,7,4,4,0,0,1,3.48,3.21,4.15,4.15,0,0,1-4.85,5,51.42,51.42,0,0,1-24.89-12.1,50.49,50.49,0,0,1-14.66-21.85,51.15,51.15,0,0,1-2.72-20.44,50.43,50.43,0,0,1,8.56-25.07,50.18,50.18,0,0,1,28.69-21C178.08-2,191.93-.06,204.94,7.8c.46.27.91.57,1.37.85A.9.9,0,0,0,206.56,8.69Z" transform="translate(0 0)"/><path class="cls-3" d="M171.84,37.79c0-5.34,0-10.69,0-16a3.35,3.35,0,1,1,6.69-.24c0,1.68,0,3.36,0,5,0,7.77,0,15.54,0,23.31a1.45,1.45,0,0,0,.94,1.52c8.55,4.38,17.08,8.81,25.61,13.22,1.84,1,2.56,2.29,2.16,4A3.33,3.33,0,0,1,203,71a9.06,9.06,0,0,1-1.19-.54q-14.5-7.49-29-15a1.45,1.45,0,0,1-.93-1.54C171.86,48.56,171.84,43.17,171.84,37.79Z" transform="translate(0 0)"/><path class="cls-3" d="M209.79,82.5v-.2c.08-2.56,3.51-6.16,5.89-6.19a4.07,4.07,0,0,1,3.62,6.12,16.87,16.87,0,0,1-2.7,3.36,3.74,3.74,0,0,1-4.4.66A4,4,0,0,1,209.79,82.5Z" transform="translate(0 0)"/><path class="cls-3" d="M193.29,97.83a4,4,0,0,1-2.91,3.91,26.46,26.46,0,0,1-3.53.78,4.1,4.1,0,0,1-4.55-3.24A4.06,4.06,0,0,1,185,94.51a21.29,21.29,0,0,1,3.52-.78A4.06,4.06,0,0,1,193.29,97.83Z" transform="translate(0 0)"/><path class="cls-3" d="M222.48,72.72a4.18,4.18,0,0,1-4.34-5.24,25.62,25.62,0,0,1,1.14-3.22A4.12,4.12,0,0,1,227.05,67,29.08,29.08,0,0,1,226,70.11,3.94,3.94,0,0,1,222.48,72.72Z" transform="translate(0 0)"/><path class="cls-3" d="M222.35,40.88A3.79,3.79,0,0,1,219,38.4a28.89,28.89,0,0,1-1.18-3.31,4.07,4.07,0,0,1,2.4-4.86A4,4,0,0,1,225.38,32a18.71,18.71,0,0,1,1.52,4.14C227.46,38.61,225.33,41,222.35,40.88Z" transform="translate(0 0)"/><path class="cls-3" d="M203.88,87.07a4.36,4.36,0,0,1,4,2.85,4,4,0,0,1-1.26,4.54,20.61,20.61,0,0,1-3.51,2.12,4,4,0,0,1-5.2-1.74,4.05,4.05,0,0,1,1.21-5.36,27.08,27.08,0,0,1,3-1.84A10.39,10.39,0,0,1,203.88,87.07Z" transform="translate(0 0)"/></g></g></svg>