<svg xmlns="http://www.w3.org/2000/svg" viewBox="0 0 210.26 267.85"><defs><style>.cls-1{fill:#fd8524;}</style></defs><g id="Capa_2" data-name="Capa 2"><g id="Capa_1-2" data-name="Capa 1"><path class="cls-1" d="M94.49,267.85c-5-.48-10.07-.9-15.09-1.46-24.48-2.74-47.87-9.09-69.86-20.46-5-2.6-7.75-6.08-8.41-11.6-1.57-13.11-2-26.15,1.94-39,3.34-10.92,10.45-18.4,21.48-21.55A153.29,153.29,0,0,0,65.79,155c3.88-2.5,7.91-1.84,10.18,1.58s1.21,7.46-2.62,9.95C60.08,175.14,46,182.19,30.68,186.26c-9.52,2.52-14.15,8.86-15.74,18a96.86,96.86,0,0,0-.52,26,4.65,4.65,0,0,0,2.86,4.2,182.3,182.3,0,0,0,52.11,16.65,212.48,212.48,0,0,0,84-2.47c14-3.25,27.49-7.79,40.18-14.59a3.84,3.84,0,0,0,1.88-2.4c1.31-10.34,1.62-20.69-1.1-30.87-1.92-7.21-6.36-12-13.78-14A153.71,153.71,0,0,1,137,166.64c-3.11-2-4.41-4.77-3.76-7.68,1.07-4.78,6.22-6.87,10.62-4.29s8.63,5.3,13.09,7.69a120.89,120.89,0,0,0,26.48,10.78c14.6,3.81,22.49,13.61,25.22,27.93a102.36,102.36,0,0,1,.22,34.79,11.84,11.84,0,0,1-6.71,9.3,187.49,187.49,0,0,1-60.37,19.72c-8,1.22-16.13,1.73-24.2,2.58-.79.09-1.57.26-2.36.39Z"/><path class="cls-1" d="M157.74,74.28A18.21,18.21,0,0,1,151.19,76c-3.6.3-4.6-.34-7-.84.16,2.1.3,4.18.46,6.17,0,12-.95,23.72-5.36,34.81-4.69,11.79-12.36,20.58-25.42,23-13.22,2.41-25.58.7-35.19-9.86-6.83-7.49-9.91-16.78-11.63-26.56a109.56,109.56,0,0,1-.62-33.62C67.93,58,71.93,48,81.54,41.4a38.65,38.65,0,0,1,23.79-6.68c.29-2.89.65-5.76,1.22-8.57a34.77,34.77,0,0,1,1.36-4.8l.09-.45a59.86,59.86,0,0,0-13.11.79c-14.74,2.5-26.43,9.67-34.37,22.46-5.38,8.67-7.49,18.34-8.27,28.4C51.05,88,51.9,103.24,56.87,118c3.18,9.44,8,17.94,15.67,24.47,12.94,11,28.08,13.27,44.19,10.12,16.64-3.26,27.57-13.72,34.29-28.91,5.64-12.73,7.3-26.23,7.59-40C158.38,80.88,158,77.1,157.74,74.28Z"/><path class="cls-1" d="M145.69,0a2.71,2.71,0,0,1,2,2.47,2.47,2.47,0,0,1-2.21,2.66c-1.47.17-3,.18-4.42.37a28.09,28.09,0,0,0-14.5,6.38A28.09,28.09,0,0,0,116.89,27c-2.46,10.06-.33,19.1,6.53,26.91a27.71,27.71,0,0,0,17.09,9.37,28.44,28.44,0,0,0,23.81-6.82,27.84,27.84,0,0,0,9.08-14.6,62.67,62.67,0,0,0,1-6.43c0-.38,0-.76.06-1.14a2.54,2.54,0,0,1,2.75-2.43,2.57,2.57,0,0,1,2.41,2.72,30.7,30.7,0,0,1-1.23,8.95c-3.86,12.68-12.14,21-25,24.28a34.21,34.21,0,0,1-40.51-21.43,32.45,32.45,0,0,1-2-9.29c0-.21-.08-.43-.12-.64v-4c.06-.48.11-1,.17-1.45a34,34,0,0,1,8.65-19.49A33.71,33.71,0,0,1,139.22.54c1.29-.23,2.61-.36,3.91-.54Z"/><path class="cls-1" d="M142.94,40.61a4.46,4.46,0,0,1,.46-.72L173.58,9.77a2.87,2.87,0,0,1,2.68-1,2.57,2.57,0,0,1,1.59,4.08c-.18.23-.39.43-.59.64L144.92,45.69c-1.53,1.53-3,1.51-4.44-.08L128,32a2.65,2.65,0,0,1-.13-3.79,2.57,2.57,0,0,1,3.82.15c1.53,1.61,3,3.26,4.52,4.89Z"/></g></g></svg>