<svg xmlns="http://www.w3.org/2000/svg" viewBox="0 0 210.26 268.13"><defs><style>.cls-1{fill:#fd8524;}.cls-2,.cls-3{fill:none;stroke:#164c4f;stroke-miterlimit:10;stroke-width:5px;}.cls-3{stroke-linecap:round;}</style></defs><g id="Capa_2" data-name="Capa 2"><g id="Capa_1-2" data-name="Capa 1"><path class="cls-1" d="M94.49,268.13c-5-.49-10.07-.91-15.09-1.47-24.48-2.73-47.87-9.08-69.86-20.45-5-2.6-7.75-6.08-8.41-11.6-1.57-13.11-2-26.15,1.94-39,3.34-10.93,10.45-18.4,21.48-21.55a153.29,153.29,0,0,0,41.24-18.86c3.88-2.5,7.91-1.84,10.18,1.58s1.21,7.46-2.62,9.95C60.08,175.42,46,182.47,30.68,186.54c-9.52,2.52-14.15,8.85-15.74,18a96.85,96.85,0,0,0-.52,26,4.65,4.65,0,0,0,2.86,4.2,182.3,182.3,0,0,0,52.11,16.65,212.66,212.66,0,0,0,84-2.47,162.66,162.66,0,0,0,40.18-14.59,3.84,3.84,0,0,0,1.88-2.4c1.31-10.34,1.62-20.69-1.1-30.87-1.92-7.22-6.36-12-13.78-14A153.71,153.71,0,0,1,137,166.92c-3.11-2-4.41-4.77-3.76-7.68,1.07-4.78,6.22-6.87,10.62-4.29s8.63,5.3,13.09,7.69a120.89,120.89,0,0,0,26.48,10.78c14.6,3.81,22.49,13.61,25.22,27.93a102.36,102.36,0,0,1,.22,34.79,11.86,11.86,0,0,1-6.71,9.3,187.73,187.73,0,0,1-60.37,19.72c-8,1.22-16.13,1.73-24.2,2.58-.79.09-1.57.26-2.36.39Z"/><path class="cls-1" d="M157.74,74.56a18.21,18.21,0,0,1-6.55,1.75c-3.6.3-4.6-.34-7-.84.16,2.1.3,4.18.46,6.17,0,12-.95,23.72-5.36,34.81-4.69,11.79-12.36,20.58-25.42,23-13.22,2.42-25.58.71-35.19-9.85-6.83-7.5-9.91-16.78-11.63-26.56a109.57,109.57,0,0,1-.62-33.62c1.48-11.14,5.48-21.06,15.09-27.7A38.65,38.65,0,0,1,105.33,35a86.22,86.22,0,0,1,1.22-8.57,34.77,34.77,0,0,1,1.36-4.8l.09-.45A59.85,59.85,0,0,0,94.89,22c-14.74,2.51-26.43,9.68-34.37,22.47-5.38,8.66-7.49,18.34-8.27,28.4-1.2,15.45-.35,30.69,4.62,45.49,3.18,9.44,8,17.94,15.67,24.46,12.94,11,28.08,13.28,44.19,10.13C133.37,149.65,144.3,139.18,151,124c5.64-12.73,7.3-26.23,7.59-40C158.38,81.16,158,77.38,157.74,74.56Z"/><circle class="cls-2" cx="145.05" cy="34.28" r="31.78"/><line class="cls-3" x1="130.09" y1="19.32" x2="160.02" y2="49.24"/><line class="cls-3" x1="160.02" y1="19.32" x2="130.09" y2="49.24"/></g></g></svg>